<svg width="65" height="95" viewBox="0 0 65 95" fill="none" xmlns="http://www.w3.org/2000/svg">
<path d="M62.142 31.5387C61.3427 42.2775 54.7196 51.2265 51.508 54.3587C51.508 54.3587 57.6457 61.9183 58.2167 69.1246C58.7876 76.3309 56.932 85.0915 55.3619 86.9284C53.7918 88.7653 29.8831 98.727 27.5993 93.4989C25.3155 88.2708 27.5993 84.6676 27.5993 84.6676C27.5993 84.6676 9.11471 78.8743 11.7554 69.1246C14.396 59.3749 24.3163 51.2501 36.3064 51.2501C28.7412 47.8589 25.03 48.0002 11.7554 36.2722C1.13564 26.8899 -1.44792 10.7675 0.693155 10.2023C2.83423 9.63714 12.9829 17.1967 21.8898 23.6965C33.0234 31.8213 46.5122 55.7717 44.3711 50.3316C42.23 44.8916 45.7985 31.5387 46.5122 27.2997C47.0831 23.9085 60.786 -0.960386 63.8549 0.0287161C66.9238 1.01782 62.9413 20.7999 62.142 31.5387Z" fill="#EDF6F9"/>
</svg>
